<svg id="SvgjsSvg1006" width="695" height="346" xmlns="http://www.w3.org/2000/svg" version="1.1" xmlns:xlink="http://www.w3.org/1999/xlink" xmlns:svgjs="http://svgjs.com/svgjs"><defs id="SvgjsDefs1007"></defs><g id="SvgjsG1008" transform="translate(25,135)"><path id="SvgjsPath1009" d="M 0 0L 162 0L 162 36L 0 36Z" stroke="rgba(50,50,50,1)" stroke-width="2" fill-opacity="1" fill="#ffffff"></path><g id="SvgjsG1010"><text id="SvgjsText1011" font-family="微软雅黑" text-anchor="middle" font-size="16px" width="142px" fill="#323232" font-weight="400" align="middle" anchor="middle" family="微软雅黑" size="16px" weight="400" font-style="" opacity="1" y="5.6" transform="rotate(0)"><tspan id="SvgjsTspan1012" dy="20" x="81"><tspan id="SvgjsTspan1013" style="text-decoration:;">pthread_mutex</tspan></tspan></text></g></g><g id="SvgjsG1014" transform="translate(25,232)"><path id="SvgjsPath1015" d="M 0 0L 162 0L 162 36L 0 36Z" stroke="rgba(50,50,50,1)" stroke-width="2" fill-opacity="1" fill="#ffffff"></path><g id="SvgjsG1016"><text id="SvgjsText1017" font-family="微软雅黑" text-anchor="middle" font-size="16px" width="142px" fill="#323232" font-weight="400" align="middle" anchor="middle" family="微软雅黑" size="16px" weight="400" font-style="" opacity="1" y="5.6" transform="rotate(0)"><tspan id="SvgjsTspan1018" dy="20" x="81"><tspan id="SvgjsTspan1019" style="text-decoration:;">my_mutex</tspan></tspan></text></g></g><g id="SvgjsG1020" transform="translate(25,185)"><path id="SvgjsPath1021" d="M 0 0L 162 0L 162 36L 0 36Z" stroke="rgba(50,50,50,1)" stroke-width="2" fill-opacity="1" fill="#ffffff"></path><g id="SvgjsG1022"><text id="SvgjsText1023" font-family="微软雅黑" text-anchor="middle" font-size="16px" width="142px" fill="#323232" font-weight="400" align="middle" anchor="middle" family="微软雅黑" size="16px" weight="400" font-style="" opacity="1" y="5.6" transform="rotate(0)"><tspan id="SvgjsTspan1024" dy="20" x="81"><tspan id="SvgjsTspan1025" style="text-decoration:;">my_spinlock</tspan></tspan></text></g></g><g id="SvgjsG1026" transform="translate(25,89)"><path id="SvgjsPath1027" d="M 0 0L 162 0L 162 36L 0 36Z" stroke="rgba(50,50,50,1)" stroke-width="2" fill-opacity="1" fill="#ffffff"></path><g id="SvgjsG1028"><text id="SvgjsText1029" font-family="微软雅黑" text-anchor="middle" font-size="16px" width="142px" fill="#323232" font-weight="400" align="middle" anchor="middle" family="微软雅黑" size="16px" weight="400" font-style="" opacity="1" y="5.6" transform="rotate(0)"><tspan id="SvgjsTspan1030" dy="20" x="81"><tspan id="SvgjsTspan1031" style="text-decoration:;">pthread_spinlock</tspan></tspan></text></g></g><g id="SvgjsG1032" transform="translate(282,109)"><path id="SvgjsPath1033" d="M 0 0L 162 0L 162 36L 0 36Z" stroke="rgba(50,50,50,1)" stroke-width="2" fill-opacity="1" fill="#ffffff"></path><g id="SvgjsG1034"><text id="SvgjsText1035" font-family="微软雅黑" text-anchor="middle" font-size="16px" width="142px" fill="#323232" font-weight="400" align="middle" anchor="middle" family="微软雅黑" size="16px" weight="400" font-style="" opacity="1" y="5.6" transform="rotate(0)"><tspan id="SvgjsTspan1036" dy="20" x="81"><tspan id="SvgjsTspan1037" style="text-decoration:;">counter</tspan></tspan></text></g></g><g id="SvgjsG1038" transform="translate(282,162)"><path id="SvgjsPath1039" d="M 0 0L 162 0L 162 36L 0 36Z" stroke="rgba(50,50,50,1)" stroke-width="2" fill-opacity="1" fill="#ffffff"></path><g id="SvgjsG1040"><text id="SvgjsText1041" font-family="微软雅黑" text-anchor="middle" font-size="16px" width="142px" fill="#323232" font-weight="400" align="middle" anchor="middle" family="微软雅黑" size="16px" weight="400" font-style="" opacity="1" y="5.6" transform="rotate(0)"><tspan id="SvgjsTspan1042" dy="20" x="81"><tspan id="SvgjsTspan1043" style="text-decoration:;">list</tspan></tspan></text></g></g><g id="SvgjsG1044" transform="translate(282,210)"><path id="SvgjsPath1045" d="M 0 0L 162 0L 162 36L 0 36Z" stroke="rgba(50,50,50,1)" stroke-width="2" fill-opacity="1" fill="#ffffff"></path><g id="SvgjsG1046"><text id="SvgjsText1047" font-family="微软雅黑" text-anchor="middle" font-size="16px" width="142px" fill="#323232" font-weight="400" align="middle" anchor="middle" family="微软雅黑" size="16px" weight="400" font-style="" opacity="1" y="5.6" transform="rotate(0)"><tspan id="SvgjsTspan1048" dy="20" x="81"><tspan id="SvgjsTspan1049" style="text-decoration:;">hash</tspan></tspan></text></g></g><g id="SvgjsG1050" transform="translate(508,25)"><path id="SvgjsPath1051" d="M 0 0L 162 0L 162 36L 0 36Z" stroke="rgba(50,50,50,1)" stroke-width="2" fill-opacity="1" fill="#ffffff"></path><g id="SvgjsG1052"><text id="SvgjsText1053" font-family="微软雅黑" text-anchor="middle" font-size="16px" width="142px" fill="#323232" font-weight="400" align="middle" anchor="middle" family="微软雅黑" size="16px" weight="400" font-style="" opacity="1" y="5.6" transform="rotate(0)"><tspan id="SvgjsTspan1054" dy="20" x="81"><tspan id="SvgjsTspan1055" style="text-decoration:;">counter test</tspan></tspan></text></g></g><g id="SvgjsG1056" transform="translate(508,78)"><path id="SvgjsPath1057" d="M 0 0L 162 0L 162 36L 0 36Z" stroke="rgba(50,50,50,1)" stroke-width="2" fill-opacity="1" fill="#ffffff"></path><g id="SvgjsG1058"><text id="SvgjsText1059" font-family="微软雅黑" text-anchor="middle" font-size="16px" width="142px" fill="#323232" font-weight="400" align="middle" anchor="middle" family="微软雅黑" size="16px" weight="400" font-style="" opacity="1" y="5.6" transform="rotate(0)"><tspan id="SvgjsTspan1060" dy="20" x="81"><tspan id="SvgjsTspan1061" style="text-decoration:;">list insert test</tspan></tspan></text></g></g><g id="SvgjsG1062" transform="translate(508,129)"><path id="SvgjsPath1063" d="M 0 0L 162 0L 162 36L 0 36Z" stroke="rgba(50,50,50,1)" stroke-width="2" fill-opacity="1" fill="#ffffff"></path><g id="SvgjsG1064"><text id="SvgjsText1065" font-family="微软雅黑" text-anchor="middle" font-size="16px" width="142px" fill="#323232" font-weight="400" align="middle" anchor="middle" family="微软雅黑" size="16px" weight="400" font-style="" opacity="1" y="5.6" transform="rotate(0)"><tspan id="SvgjsTspan1066" dy="20" x="81"><tspan id="SvgjsTspan1067" style="text-decoration:;">list delete test</tspan></tspan></text></g></g><g id="SvgjsG1068" transform="translate(508,181)"><path id="SvgjsPath1069" d="M 0 0L 162 0L 162 36L 0 36Z" stroke="rgba(50,50,50,1)" stroke-width="2" fill-opacity="1" fill="#ffffff"></path><g id="SvgjsG1070"><text id="SvgjsText1071" font-family="微软雅黑" text-anchor="middle" font-size="16px" width="142px" fill="#323232" font-weight="400" align="middle" anchor="middle" family="微软雅黑" size="16px" weight="400" font-style="" opacity="1" y="5.6" transform="rotate(0)"><tspan id="SvgjsTspan1072" dy="20" x="81"><tspan id="SvgjsTspan1073" style="text-decoration:;">hash insert test</tspan></tspan></text></g></g><g id="SvgjsG1074" transform="translate(508,232)"><path id="SvgjsPath1075" d="M 0 0L 162 0L 162 36L 0 36Z" stroke="rgba(50,50,50,1)" stroke-width="2" fill-opacity="1" fill="#ffffff"></path><g id="SvgjsG1076"><text id="SvgjsText1077" font-family="微软雅黑" text-anchor="middle" font-size="16px" width="142px" fill="#323232" font-weight="400" align="middle" anchor="middle" family="微软雅黑" size="16px" weight="400" font-style="" opacity="1" y="5.6" transform="rotate(0)"><tspan id="SvgjsTspan1078" dy="20" x="81"><tspan id="SvgjsTspan1079" style="text-decoration:;">hash delete test</tspan></tspan></text></g></g><g id="SvgjsG1080" transform="translate(508,285)"><path id="SvgjsPath1081" d="M 0 0L 162 0L 162 36L 0 36Z" stroke="rgba(50,50,50,1)" stroke-width="2" fill-opacity="1" fill="#ffffff"></path><g id="SvgjsG1082"><text id="SvgjsText1083" font-family="微软雅黑" text-anchor="middle" font-size="16px" width="142px" fill="#323232" font-weight="400" align="middle" anchor="middle" family="微软雅黑" size="16px" weight="400" font-style="" opacity="1" y="5.6" transform="rotate(0)"><tspan id="SvgjsTspan1084" dy="20" x="81"><tspan id="SvgjsTspan1085" style="text-decoration:;">........</tspan></tspan></text></g></g><g id="SvgjsG1086"><path id="SvgjsPath1087" d="M187 107L282 127" stroke="#323232" stroke-width="2" fill="none"></path></g><g id="SvgjsG1088"><path id="SvgjsPath1089" d="M187 107L282 180" stroke="#323232" stroke-width="2" fill="none"></path></g><g id="SvgjsG1090"><path id="SvgjsPath1091" d="M187 107L282 228" stroke="#323232" stroke-width="2" fill="none"></path></g><g id="SvgjsG1092"><path id="SvgjsPath1093" d="M187 153L282 127" stroke="#323232" stroke-width="2" fill="none"></path></g><g id="SvgjsG1094"><path id="SvgjsPath1095" d="M187 153L282 180" stroke="#323232" stroke-width="2" fill="none"></path></g><g id="SvgjsG1096"><path id="SvgjsPath1097" d="M187 153L282 228" stroke="#323232" stroke-width="2" fill="none"></path></g><g id="SvgjsG1098"><path id="SvgjsPath1099" d="M187 203L282 180" stroke="#323232" stroke-width="2" fill="none"></path></g><g id="SvgjsG1100"><path id="SvgjsPath1101" d="M187 203L282 127" stroke="#323232" stroke-width="2" fill="none"></path></g><g id="SvgjsG1102"><path id="SvgjsPath1103" d="M187 203L282 228" stroke="#323232" stroke-width="2" fill="none"></path></g><g id="SvgjsG1104"><path id="SvgjsPath1105" d="M187 250L282 127" stroke="#323232" stroke-width="2" fill="none"></path></g><g id="SvgjsG1106"><path id="SvgjsPath1107" d="M187 250L282 180" stroke="#323232" stroke-width="2" fill="none"></path></g><g id="SvgjsG1108"><path id="SvgjsPath1109" d="M187 250L282 228" stroke="#323232" stroke-width="2" fill="none"></path></g><g id="SvgjsG1110"><path id="SvgjsPath1111" d="M444 127L508 43" stroke="#323232" stroke-width="2" fill="none"></path></g><g id="SvgjsG1112"><path id="SvgjsPath1113" d="M444 180L508 96" stroke="#323232" stroke-width="2" fill="none"></path></g><g id="SvgjsG1114"><path id="SvgjsPath1115" d="M444 180L508 147" stroke="#323232" stroke-width="2" fill="none"></path></g><g id="SvgjsG1116"><path id="SvgjsPath1117" d="M444 228L508 190" stroke="#323232" stroke-width="2" fill="none"></path></g><g id="SvgjsG1118"><path id="SvgjsPath1119" d="M444 228L508 250" stroke="#323232" stroke-width="2" fill="none"></path></g><g id="SvgjsG1120"><path id="SvgjsPath1121" d="M444 180L508 303" stroke="#323232" stroke-width="2" fill="none"></path></g><g id="SvgjsG1122"><path id="SvgjsPath1123" d="M444 228L508 303" stroke="#323232" stroke-width="2" fill="none"></path></g><g id="SvgjsG1124"><path id="SvgjsPath1125" d="M444 127L508 303" stroke="#323232" stroke-width="2" fill="none"></path></g></svg>